<?xml version="1.0" encoding="utf-8"?>
<!-- Generator: Adobe Illustrator 17.0.0, SVG Export Plug-In . SVG Version: 6.00 Build 0)  -->
<!DOCTYPE svg PUBLIC "-//W3C//DTD SVG 1.1//EN" "http://www.w3.org/Graphics/SVG/1.1/DTD/svg11.dtd">
<svg version="1.1" id="Layer_1" xmlns="http://www.w3.org/2000/svg" xmlns:xlink="http://www.w3.org/1999/xlink" x="0px" y="0px"
	 width="342.182px" height="91.697px" viewBox="0 0 342.182 91.697" enable-background="new 0 0 342.182 91.697"
	 xml:space="preserve">
<g>
	<path fill="#FFFFFF" d="M165.127,41.698l-11.535,19.641h-5.564l14.047-22.863c0,0,1.369-2.602,4.535-2.602h3.082l2.457,25.465
		h-5.771L165.127,41.698z"/>
	<path fill="#FFFFFF" d="M243.899,59.077c-2.436,1.979-5.472,2.971-9.11,2.971s-6.165-0.992-7.579-2.971
		c-1.955-2.432-2.345-5.932-1.167-10.504c1.201-4.666,3.391-8.166,6.572-10.506c2.433-1.98,5.471-2.971,9.109-2.971
		c3.642,0,6.167,0.99,7.58,2.971c1.967,2.34,2.35,5.84,1.149,10.506C249.278,53.146,247.091,56.646,243.899,59.077 M241.568,55.206
		c1.639-1.555,2.828-3.768,3.566-6.633c0.734-2.858,0.684-5.063-0.152-6.629c-0.838-1.56-2.311-2.342-4.418-2.342
		c-2.107,0-3.989,0.781-5.646,2.336c-1.654,1.555-2.852,3.768-3.591,6.635c-0.735,2.865-0.678,5.078,0.177,6.633
		c0.854,1.555,2.336,2.332,4.445,2.332C238.059,57.538,239.93,56.761,241.568,55.206"/>
	<path fill="#FFFFFF" d="M9.15,35.874c-1.436,0-2.898,1.166-3.27,2.6L0,61.339h5.285l6.553-25.465H9.15z"/>
	<path fill="#FFFFFF" d="M31.965,35.874l-2.498,9.709h-9.898l2.498-9.709h-2.69c-1.434,0-2.896,1.166-3.266,2.6l-5.887,22.865h5.287
		l2.926-11.367h9.9l-2.926,11.367h5.285l6.553-25.465H31.965z"/>
	<path fill="#FFFFFF" d="M42.84,35.874c-1.438,0-2.898,1.166-3.269,2.6l-0.492,1.91h7.656L41.34,61.339h5.356l5.392-20.955h7.621
		l1.16-4.51H42.84z"/>
	<path fill="#FFFFFF" d="M104.154,37.841c-1.16-1.31-3.002-1.967-5.52-1.967h-8.336c-1.436,0-2.9,1.166-3.27,2.6l-5.885,22.865
		h5.287l2.356-9.154h5.305c2.766,0,5.053-0.623,6.863-1.867c1.813-1.246,3.103-3.369,3.879-6.377
		C105.543,41.19,105.314,39.157,104.154,37.841 M97.779,46.882c-0.83,0.605-1.854,0.914-3.066,0.914h-4.795l1.928-7.5h4.795
		c1.217,0,2.086,0.281,2.617,0.848c0.527,0.564,0.623,1.508,0.283,2.834C99.197,45.302,98.611,46.269,97.779,46.882"/>
	<path fill="#FFFFFF" d="M111.65,35.874c-1.434,0-2.896,1.166-3.268,2.6l-0.492,1.91h7.656l-5.395,20.955h5.355l5.393-20.955h7.619
		l1.16-4.51H111.65z"/>
	<path fill="#FFFFFF" d="M214.431,46.349l13.146-10.476h-6.877l-12.54,10.494l2.701-10.494h-2.634c-1.438,0-2.899,1.166-3.268,2.601
		l-5.884,22.865h5.232l2.193-8.516l3.23-2.598l4.986,11.113h6.842L214.431,46.349z"/>
	<path fill="#FFFFFF" d="M274.676,35.874l-9.754,20.02l0.517-20.02h-5.144c-1.436,0-2.898,1.166-3.268,2.6l-5.885,22.865h4.958
		l4.433-17.225c0.129-0.494,0.301-1.188,0.519-2.08c0.218-0.893,0.39-1.582,0.515-2.064l-0.709,21.369h5.173l10.323-21.369
		c-0.125,0.482-0.305,1.172-0.548,2.064c-0.242,0.893-0.427,1.586-0.553,2.08l-4.432,17.225h4.959l6.551-25.465H274.676z"/>
	<path fill="#FFFFFF" d="M78.682,47.614l0.469-1.822H66.783l1.391-5.408h13.475l1.16-4.51H66.732c-1.436,0-2.898,1.166-3.27,2.598
		L57.58,61.339h19.299l1.178-4.578H63.959l1.686-6.547h9.768C76.85,50.214,78.313,49.05,78.682,47.614"/>
	<path fill="#FFFFFF" d="M196.645,47.614l0.471-1.822h-12.37l1.392-5.408h13.475l1.16-4.51h-16.075c-1.436,0-2.901,1.166-3.27,2.598
		l-5.883,22.867h19.297l1.178-4.578H181.92l1.686-6.547h9.771C194.813,50.214,196.274,49.05,196.645,47.614"/>
	<path fill="#FFFFFF" d="M147.494,47.614l0.471-1.822h-12.369l1.389-5.408h13.477l1.158-4.51h-16.074c-1.436,0-2.9,1.166-3.27,2.598
		l-5.885,22.867h19.299l1.18-4.578h-14.098l1.684-6.547h9.771C145.662,50.214,147.123,49.05,147.494,47.614"/>
</g>
<path fill="#164194" d="M274.193,15.731c0.003,0,0.007,0,0.011,0c0.6,0.012,1.189,0.037,1.772,0.074
	c0.017,0,0.031,0.002,0.048,0.002c0.57,0.035,1.134,0.084,1.69,0.141c0.029,0.006,0.059,0.012,0.091,0.016
	c0.538,0.057,1.073,0.125,1.598,0.207c0.046,0.008,0.088,0.018,0.134,0.023c0.508,0.08,1.011,0.17,1.505,0.271
	c0.063,0.012,0.121,0.027,0.184,0.039c0.475,0.1,0.945,0.207,1.408,0.326c0.074,0.017,0.147,0.041,0.224,0.06
	c0.442,0.117,0.883,0.24,1.313,0.373c0.091,0.031,0.177,0.06,0.266,0.09c0.146,0.047,0.288,0.1,0.434,0.148
	c0.264,0.088,0.529,0.174,0.787,0.27c0.103,0.037,0.2,0.08,0.303,0.119c0.38,0.149,0.758,0.297,1.125,0.455
	c0.117,0.051,0.228,0.107,0.342,0.156c0.35,0.158,0.694,0.318,1.032,0.488c0.127,0.063,0.248,0.133,0.373,0.197
	c0.318,0.168,0.634,0.336,0.943,0.512c0.136,0.078,0.267,0.166,0.402,0.248c0.286,0.174,0.572,0.344,0.851,0.527
	c0.148,0.098,0.29,0.203,0.435,0.305c0.254,0.176,0.512,0.351,0.758,0.537c0.156,0.117,0.304,0.242,0.455,0.361
	c0.228,0.182,0.456,0.357,0.677,0.543c0.16,0.139,0.314,0.285,0.471,0.426c0.199,0.184,0.402,0.361,0.596,0.547
	c0.163,0.156,0.313,0.322,0.472,0.486c0.178,0.178,0.358,0.357,0.53,0.543c0.162,0.182,0.315,0.371,0.473,0.557
	c0.153,0.178,0.311,0.351,0.458,0.537c0.168,0.211,0.327,0.434,0.488,0.652c0.124,0.168,0.254,0.33,0.373,0.5
	c0.177,0.258,0.342,0.52,0.51,0.781c0.093,0.145,0.191,0.285,0.281,0.434c0.252,0.414,0.489,0.836,0.717,1.268
	c0.186,0.355,0.361,0.721,0.525,1.09c0.055,0.125,0.105,0.252,0.157,0.375c0.104,0.248,0.211,0.496,0.305,0.748
	c0.057,0.152,0.107,0.305,0.163,0.457c0.079,0.23,0.159,0.459,0.233,0.693c0.051,0.166,0.099,0.334,0.147,0.504
	c0.063,0.225,0.127,0.449,0.183,0.676c0.046,0.178,0.086,0.357,0.124,0.535c0.053,0.223,0.099,0.447,0.142,0.672
	c0.036,0.186,0.067,0.373,0.1,0.561c0.038,0.223,0.07,0.445,0.101,0.668c0.025,0.193,0.052,0.387,0.073,0.582
	c0.024,0.223,0.043,0.445,0.062,0.67c0.016,0.199,0.033,0.399,0.046,0.6c0.013,0.221,0.02,0.445,0.026,0.67
	c0.006,0.205,0.014,0.41,0.015,0.617c0.001,0.221-0.004,0.442-0.009,0.662c-0.004,0.213-0.006,0.428-0.015,0.643
	c-0.01,0.211-0.028,0.422-0.043,0.635c-0.061,0.914-0.169,1.838-0.326,2.769c-0.026,0.164-0.051,0.328-0.08,0.494
	c-0.051,0.271-0.111,0.547-0.169,0.822c-0.036,0.168-0.07,0.34-0.109,0.51c-0.065,0.273-0.136,0.551-0.207,0.826
	c-0.044,0.17-0.086,0.338-0.134,0.51c-0.077,0.279-0.16,0.561-0.248,0.842c-0.05,0.166-0.1,0.328-0.153,0.494
	c-0.093,0.287-0.19,0.574-0.29,0.859c-0.057,0.158-0.113,0.316-0.172,0.475c-0.108,0.293-0.221,0.588-0.337,0.883
	c-0.061,0.145-0.119,0.291-0.18,0.438c-0.128,0.307-0.259,0.615-0.394,0.918c-0.057,0.129-0.117,0.256-0.176,0.379
	c-0.15,0.326-0.302,0.652-0.463,0.975c-0.044,0.096-0.095,0.189-0.143,0.281c-0.18,0.357-0.363,0.713-0.556,1.07
	c-0.01,0.012-0.018,0.027-0.026,0.043c-1.139,2.084-2.366,4.064-3.961,6.066c-0.048,0.057-0.092,0.115-0.138,0.174
	c-0.277,0.342-0.562,0.682-0.852,1.02c-0.068,0.082-0.137,0.162-0.207,0.244c-0.282,0.326-0.572,0.65-0.868,0.973
	c-0.081,0.088-0.163,0.18-0.248,0.27c-0.293,0.316-0.594,0.633-0.9,0.943c-0.089,0.09-0.178,0.18-0.268,0.27
	c-0.311,0.313-0.628,0.619-0.95,0.93c-0.088,0.084-0.179,0.168-0.269,0.252c-0.331,0.313-0.67,0.623-1.017,0.932
	c-0.075,0.068-0.153,0.135-0.231,0.203c-0.364,0.318-0.69,0.639-1.072,0.955c-0.591,0.492-1.407,1.092-2.266,1.695
	c-0.017,0.016-0.035,0.031-0.05,0.043c15.87-10.104,26.175-23.563,27.403-35.166c0.4-3.783-0.152-7.369-1.804-10.574
	c-0.249-0.492-0.532-0.963-0.827-1.424c-0.097-0.15-0.208-0.299-0.311-0.445c-0.056-0.08-0.117-0.16-0.174-0.24
	c-0.173-0.256-0.364-0.5-0.552-0.744c-0.109-0.135-0.222-0.266-0.333-0.398c-0.218-0.256-0.442-0.512-0.672-0.756
	c-0.158-0.166-0.316-0.322-0.481-0.479c-0.236-0.234-0.483-0.461-0.734-0.682c-0.171-0.154-0.344-0.301-0.52-0.447
	c-0.267-0.217-0.542-0.426-0.821-0.631c-0.182-0.131-0.358-0.27-0.543-0.397c-0.309-0.215-0.628-0.414-0.947-0.611
	c-0.176-0.107-0.345-0.219-0.521-0.324c-0.411-0.24-0.839-0.465-1.273-0.686c-0.1-0.047-0.192-0.104-0.295-0.152
	c-0.487-0.24-0.994-0.461-1.511-0.672c-1.648-0.66-3.434-1.195-5.346-1.592l-0.573-0.094c0,0,0.111-0.021,0.417-0.014
	c0.684,0.027,2.371,0.228,6.156,1.26c0.445,0.121,2.389,0.775,2.857,0.975c0.159,0.066,0.325,0.129,0.483,0.199
	c0.191,0.086,0.371,0.186,0.56,0.273c0.536,0.268,1.064,0.543,1.573,0.834c0.228,0.131,0.444,0.273,0.667,0.41
	c0.412,0.248,0.82,0.504,1.213,0.769c0.238,0.162,0.468,0.334,0.699,0.504c0.357,0.258,0.708,0.521,1.048,0.795
	c0.229,0.186,0.45,0.375,0.67,0.565c0.323,0.279,0.636,0.566,0.94,0.861c0.207,0.197,0.413,0.398,0.611,0.605
	c0.19,0.199,0.368,0.406,0.551,0.611c0.102,0.117,0.211,0.229,0.313,0.348c0.176,0.203,0.358,0.408,0.525,0.617
	c0.293,0.365,0.563,0.744,0.832,1.127c0.132,0.188,0.271,0.369,0.397,0.561c0.38,0.582,0.737,1.18,1.061,1.801
	c3.768,7.211,3.686,16.311-0.053,25.557c-2.424,6-14.17,26.557-39.114,35.967c0.044-0.014,0.086-0.023,0.13-0.037
	c0.571-0.176,1.145-0.357,1.718-0.543c0.361-0.117,0.723-0.232,1.087-0.355c0.565-0.191,1.136-0.395,1.704-0.598
	c0.37-0.133,0.738-0.262,1.105-0.4c0.572-0.213,1.145-0.438,1.714-0.662c0.368-0.145,0.734-0.285,1.103-0.436
	c0.585-0.238,1.171-0.49,1.757-0.744c0.354-0.15,0.707-0.297,1.06-0.453c0.638-0.283,1.275-0.582,1.911-0.881
	c0.301-0.139,0.603-0.273,0.903-0.418c0.938-0.449,1.872-0.912,2.807-1.398c0.681-0.354,1.348-0.717,2.014-1.082
	c24.822-14,39.572-35.809,35.246-51.592c-0.341-1.242-0.785-2.453-1.367-3.613c-0.277-0.555-0.584-1.09-0.91-1.611
	c-0.108-0.17-0.229-0.334-0.341-0.502c-0.232-0.342-0.464-0.682-0.714-1.006c-0.144-0.191-0.299-0.373-0.451-0.555
	c-0.24-0.291-0.484-0.578-0.742-0.858c-0.168-0.184-0.347-0.363-0.522-0.541c-0.262-0.264-0.531-0.521-0.808-0.771
	c-0.189-0.17-0.378-0.338-0.575-0.504c-0.29-0.246-0.593-0.482-0.898-0.715c-0.199-0.15-0.395-0.303-0.6-0.447
	c-0.146-0.104-0.301-0.199-0.451-0.301c-0.192-0.129-0.382-0.256-0.579-0.383c-0.001-0.002-0.003-0.002-0.004-0.004
	c-0.393-0.273-0.801-0.533-1.213-0.791c-0.224-0.141-0.44-0.285-0.668-0.418c-0.527-0.31-1.074-0.603-1.631-0.887
	c-0.128-0.064-0.248-0.137-0.377-0.201c-0.695-0.344-1.414-0.666-2.15-0.969c-0.188-0.078-0.385-0.144-0.574-0.219
	c-0.556-0.219-1.117-0.431-1.695-0.627c-0.273-0.092-0.557-0.176-0.836-0.264c-0.512-0.16-1.026-0.318-1.554-0.461
	c-0.31-0.086-0.625-0.164-0.94-0.242c-0.518-0.129-1.04-0.252-1.57-0.367c-0.328-0.068-0.656-0.135-0.988-0.198
	c-0.544-0.107-1.096-0.2-1.652-0.29c-0.328-0.051-0.655-0.105-0.988-0.15c-0.598-0.084-1.205-0.153-1.816-0.219
	c-0.303-0.033-0.6-0.07-0.905-0.098c-0.733-0.066-1.478-0.117-2.229-0.158c-0.193-0.01-0.381-0.027-0.575-0.037
	c-0.974-0.045-1.958-0.068-2.959-0.07c-0.042,0-0.087,0.002-0.13,0.002c-0.939,0-1.889,0.021-2.849,0.058
	c-0.059,0.001-0.114,0.001-0.173,0.003l0.001,0.006c-0.024,0.002-0.051,0.004-0.074,0.004c-0.025,0-0.051,0.002-0.078,0.004
	c-0.271,0.012-0.548,0.029-0.821,0.045c-0.649,0.035-1.301,0.074-1.96,0.125c-0.206,0.018-0.406,0.029-0.612,0.047
	c0.01,0.002,0.018,0.004,0.026,0.007c-0.01-0.003-0.018-0.005-0.027-0.007c-0.271,0.022-0.548,0.057-0.821,0.082
	c-0.417,0.041-0.832,0.08-1.253,0.128c-0.523,0.058-1.051,0.126-1.579,0.196c-0.363,0.047-0.724,0.088-1.089,0.141
	c-0.854,0.122-1.716,0.259-2.581,0.408c-0.352,0.061-0.707,0.131-1.06,0.195c-0.572,0.105-1.146,0.213-1.722,0.33
	c-0.385,0.08-0.771,0.162-1.159,0.247c-0.56,0.12-4.804,1.06-6.596,1.519c-2.184,0.559-4.522,1.254-4.785,1.324
	c-0.256,0.068-0.517,0.133-0.774,0.205c-0.715,0.191-1.435,0.4-2.154,0.617c-4.564,1.375-9.214,3.215-13.838,5.48
	c-0.063,0.041-0.097,0.065-0.097,0.065c0.329-0.166,4.093-1.576,9.428-3.004c0.078-0.021,0.161-0.041,0.24-0.063
	c-0.03,0.008-0.058,0.014-0.088,0.019C264.138,16.183,269.402,15.642,274.193,15.731z"/>
<path fill="#FFDD00" d="M339.699,15.274c-0.323-0.637-0.682-1.248-1.062-1.846c-0.126-0.197-0.265-0.383-0.397-0.576
	c-0.269-0.391-0.54-0.78-0.831-1.155c-0.169-0.218-0.351-0.425-0.526-0.634c-0.28-0.334-0.566-0.664-0.863-0.982
	c-0.199-0.211-0.405-0.418-0.612-0.621c-0.305-0.301-0.617-0.597-0.94-0.883c-0.22-0.196-0.441-0.391-0.67-0.578
	c-0.339-0.281-0.691-0.554-1.048-0.82c-0.232-0.172-0.46-0.346-0.699-0.514c-0.392-0.275-0.801-0.534-1.213-0.792
	c-0.223-0.138-0.44-0.284-0.667-0.417c-0.528-0.311-1.074-0.604-1.631-0.887c-0.128-0.066-0.248-0.139-0.378-0.201
	c-0.695-0.346-1.413-0.668-2.149-0.971c-0.188-0.076-0.385-0.143-0.574-0.217c-0.556-0.218-1.117-0.431-1.695-0.626
	c-0.273-0.093-0.557-0.176-0.836-0.264c-0.512-0.162-1.026-0.319-1.555-0.462c-0.309-0.086-0.624-0.163-0.939-0.241
	c-0.518-0.13-1.039-0.253-1.571-0.368c-0.327-0.068-0.655-0.136-0.987-0.198c-0.544-0.106-1.096-0.2-1.652-0.289
	c-0.329-0.053-0.655-0.106-0.988-0.152c-0.598-0.084-1.205-0.153-1.817-0.218c-0.302-0.033-0.6-0.07-0.904-0.098
	c-0.733-0.066-1.479-0.117-2.23-0.157c-0.193-0.013-0.382-0.028-0.575-0.037c-0.974-0.045-1.959-0.069-2.959-0.07
	c-0.043,0-0.087,0.001-0.13,0.001c-0.938,0-1.889,0.02-2.849,0.058c-0.059,0.001-0.114,0.001-0.173,0.004l0.001,0.005
	c-0.025,0.002-0.05,0.003-0.074,0.004c-0.026,0-0.051,0.003-0.078,0.004c-0.271,0.012-0.548,0.029-0.822,0.045
	c-0.649,0.034-1.3,0.074-1.959,0.126c-0.206,0.015-0.406,0.026-0.612,0.046c0.01,0.003,0.018,0.004,0.025,0.006
	c-0.009-0.002-0.017-0.003-0.026-0.006c-0.272,0.021-0.548,0.055-0.822,0.083c-0.416,0.04-0.832,0.079-1.252,0.126
	c-0.523,0.059-1.051,0.128-1.579,0.197c-0.363,0.048-0.724,0.088-1.089,0.141c-0.854,0.124-1.716,0.258-2.581,0.408
	c-0.352,0.061-0.707,0.132-1.06,0.195c-0.572,0.105-1.146,0.213-1.722,0.33c-0.386,0.078-0.772,0.162-1.159,0.246
	c-0.561,0.121-1.122,0.248-1.687,0.379c-0.38,0.091-0.76,0.18-1.142,0.273c-0.61,0.15-1.224,0.311-1.838,0.473
	c-0.331,0.089-0.662,0.173-0.994,0.265c-0.916,0.254-1.836,0.519-2.758,0.8c-6.25,1.908-12.627,4.469-18.952,7.69
	c-0.627,0.319-1.242,0.646-1.856,0.976c-0.374,0.205-2.676,1.604-3.421,2.111c-2.708,1.844-5.117,3.803-7.181,5.826
	c0.031-0.016,0.064-0.029,0.097-0.045c4.624-2.266,9.274-4.105,13.838-5.48c0.72-0.217,1.439-0.426,2.154-0.617
	c0.258-0.072,0.518-0.137,0.774-0.205c0.264-0.07,2.602-0.766,4.785-1.324c1.792-0.459,6.036-1.399,6.596-1.519
	c0.388-0.085,0.774-0.167,1.159-0.247c0.576-0.117,1.15-0.225,1.722-0.33c0.353-0.064,0.708-0.135,1.06-0.195
	c0.865-0.149,1.727-0.286,2.581-0.408c0.365-0.053,0.726-0.094,1.089-0.141c0.528-0.07,1.056-0.139,1.579-0.196
	c0.421-0.048,0.836-0.087,1.253-0.128c0.273-0.025,0.55-0.06,0.821-0.082c0.01,0.002,0.018,0.004,0.027,0.007
	c-0.009-0.003-0.017-0.005-0.026-0.007c0.206-0.018,0.406-0.029,0.612-0.047c0.659-0.051,1.311-0.09,1.96-0.125
	c0.273-0.016,0.55-0.033,0.821-0.045c0.027-0.002,0.053-0.004,0.078-0.004c0.023,0,0.05-0.002,0.074-0.004l-0.001-0.006
	c0.059-0.002,0.114-0.002,0.173-0.003c0.96-0.037,1.91-0.058,2.849-0.058c0.043,0,0.088-0.002,0.13-0.002
	c1.001,0.002,1.985,0.025,2.959,0.07c0.194,0.01,0.382,0.027,0.575,0.037c0.752,0.041,1.496,0.092,2.229,0.158
	c0.305,0.027,0.603,0.064,0.905,0.098c0.611,0.065,1.219,0.135,1.816,0.219c0.333,0.045,0.66,0.1,0.988,0.15
	c0.557,0.09,1.108,0.184,1.652,0.29c0.332,0.063,0.66,0.13,0.988,0.198c0.53,0.115,1.053,0.238,1.57,0.367
	c0.315,0.078,0.631,0.156,0.94,0.242c0.527,0.143,1.042,0.301,1.554,0.461c0.279,0.088,0.563,0.172,0.836,0.264
	c0.578,0.196,1.14,0.408,1.695,0.627c0.189,0.074,0.387,0.141,0.574,0.219c0.736,0.303,1.455,0.625,2.15,0.969
	c0.129,0.064,0.249,0.137,0.377,0.201c0.557,0.283,1.104,0.576,1.631,0.887c0.228,0.133,0.444,0.277,0.668,0.418
	c0.412,0.258,0.82,0.518,1.213,0.791c0.001,0.002,0.003,0.002,0.004,0.004c0.197,0.127,0.387,0.254,0.579,0.383
	c0.15,0.102,0.306,0.197,0.451,0.301c0.205,0.144,0.4,0.297,0.6,0.447c0.306,0.232,0.608,0.469,0.898,0.715
	c0.197,0.166,0.386,0.334,0.575,0.504c0.276,0.25,0.546,0.508,0.808,0.771c0.176,0.178,0.354,0.357,0.522,0.541
	c0.258,0.279,0.502,0.566,0.742,0.858c0.152,0.182,0.307,0.363,0.451,0.555c0.25,0.324,0.482,0.664,0.714,1.006
	c0.112,0.168,0.232,0.332,0.341,0.502c0.326,0.521,0.633,1.057,0.91,1.611c0.582,1.16,1.026,2.371,1.367,3.613
	c4.326,15.783-10.424,37.592-35.246,51.592c-0.666,0.365-1.333,0.729-2.014,1.082c-0.935,0.486-1.869,0.949-2.807,1.398
	c-0.301,0.145-0.602,0.279-0.903,0.418c-0.636,0.299-1.273,0.598-1.911,0.881c-0.353,0.156-0.706,0.303-1.06,0.453
	c-0.586,0.254-1.172,0.506-1.757,0.744c-0.369,0.15-0.735,0.291-1.103,0.436c-0.569,0.225-1.142,0.449-1.714,0.662
	c-0.367,0.139-0.735,0.268-1.105,0.4c-0.568,0.203-1.139,0.406-1.704,0.598c-0.364,0.123-0.726,0.238-1.087,0.355
	c-0.573,0.186-1.146,0.367-1.718,0.543c-0.044,0.014-0.086,0.023-0.13,0.037c24.944-9.41,36.69-29.967,39.114-35.967
	c3.738-9.246,3.82-18.346,0.053-25.557c-0.324-0.621-0.682-1.219-1.061-1.801c-0.126-0.191-0.266-0.373-0.397-0.561
	c-0.269-0.383-0.539-0.762-0.832-1.127c-0.168-0.209-0.35-0.414-0.525-0.617c-0.102-0.119-0.211-0.23-0.313-0.348
	c-0.183-0.205-0.36-0.412-0.551-0.611c-0.198-0.207-0.404-0.408-0.611-0.605c-0.305-0.295-0.617-0.582-0.94-0.861
	c-0.22-0.19-0.441-0.379-0.67-0.565c-0.34-0.273-0.691-0.537-1.048-0.795c-0.231-0.17-0.461-0.342-0.699-0.504
	c-0.393-0.266-0.801-0.521-1.213-0.769c-0.223-0.137-0.439-0.279-0.667-0.41c-0.51-0.291-1.037-0.566-1.573-0.834
	c-0.188-0.088-0.369-0.188-0.56-0.273c-0.158-0.07-0.324-0.133-0.483-0.199c-0.469-0.199-2.412-0.854-2.857-0.975
	c-3.785-1.031-5.472-1.232-6.156-1.26c-0.306-0.008-0.417,0.014-0.417,0.014l0.573,0.094c1.912,0.397,3.697,0.932,5.346,1.592
	c0.517,0.211,1.023,0.432,1.511,0.672c0.103,0.049,0.195,0.106,0.295,0.152c0.435,0.221,0.862,0.445,1.273,0.686
	c0.177,0.105,0.346,0.217,0.521,0.324c0.319,0.197,0.639,0.396,0.947,0.611c0.184,0.127,0.361,0.266,0.543,0.397
	c0.279,0.205,0.555,0.414,0.821,0.631c0.177,0.146,0.35,0.293,0.52,0.447c0.251,0.221,0.498,0.447,0.734,0.682
	c0.164,0.156,0.322,0.313,0.481,0.479c0.229,0.244,0.454,0.5,0.672,0.756c0.111,0.133,0.224,0.264,0.333,0.398
	c0.188,0.244,0.379,0.488,0.552,0.744c0.057,0.08,0.118,0.16,0.174,0.24c0.103,0.146,0.214,0.295,0.311,0.445
	c0.295,0.461,0.578,0.932,0.827,1.424c1.651,3.205,2.204,6.791,1.804,10.574c-1.229,11.604-11.533,25.063-27.403,35.166
	c0.015-0.012,0.033-0.027,0.05-0.043c0.858-0.604,1.675-1.203,2.266-1.695c0.382-0.316,0.708-0.637,1.072-0.955
	c0.078-0.068,0.156-0.135,0.231-0.203c0.347-0.309,0.686-0.619,1.017-0.932c0.09-0.084,0.181-0.168,0.269-0.252
	c0.322-0.311,0.64-0.617,0.95-0.93c0.09-0.09,0.179-0.18,0.268-0.27c0.307-0.311,0.607-0.627,0.9-0.943
	c0.085-0.09,0.167-0.182,0.248-0.27c0.296-0.322,0.586-0.646,0.868-0.973c0.07-0.082,0.139-0.162,0.207-0.244
	c0.29-0.338,0.574-0.678,0.852-1.02c0.046-0.059,0.09-0.117,0.138-0.174c1.595-2.002,2.822-3.982,3.961-6.066
	c0.009-0.016,0.017-0.031,0.026-0.043c0.192-0.357,0.376-0.713,0.556-1.07c0.048-0.092,0.099-0.186,0.143-0.281
	c0.161-0.322,0.312-0.648,0.463-0.975c0.059-0.123,0.119-0.25,0.176-0.379c0.135-0.303,0.266-0.611,0.394-0.918
	c0.06-0.146,0.119-0.293,0.18-0.438c0.116-0.295,0.229-0.59,0.337-0.883c0.059-0.158,0.115-0.316,0.172-0.475
	c0.1-0.285,0.197-0.572,0.29-0.859c0.054-0.166,0.104-0.328,0.153-0.494c0.088-0.281,0.171-0.563,0.248-0.842
	c0.048-0.172,0.09-0.34,0.134-0.51c0.071-0.275,0.143-0.553,0.207-0.826c0.039-0.17,0.073-0.342,0.109-0.51
	c0.058-0.275,0.118-0.551,0.169-0.822c0.029-0.166,0.054-0.33,0.08-0.494c0.157-0.932,0.265-1.855,0.326-2.769
	c0.015-0.213,0.033-0.424,0.043-0.635c0.009-0.215,0.011-0.43,0.015-0.643c0.005-0.221,0.01-0.441,0.009-0.662
	c-0.001-0.207-0.009-0.412-0.015-0.617c-0.007-0.225-0.014-0.449-0.026-0.67c-0.013-0.201-0.03-0.4-0.046-0.6
	c-0.019-0.225-0.037-0.447-0.062-0.67c-0.021-0.195-0.048-0.389-0.073-0.582c-0.03-0.223-0.063-0.445-0.101-0.668
	c-0.032-0.188-0.064-0.375-0.1-0.561c-0.043-0.225-0.089-0.449-0.142-0.672c-0.038-0.178-0.078-0.357-0.124-0.535
	c-0.056-0.227-0.12-0.451-0.183-0.676c-0.048-0.17-0.096-0.338-0.147-0.504c-0.074-0.234-0.154-0.463-0.233-0.693
	c-0.056-0.152-0.106-0.305-0.163-0.457c-0.094-0.252-0.201-0.5-0.305-0.748c-0.052-0.123-0.103-0.25-0.157-0.375
	c-0.164-0.369-0.34-0.734-0.525-1.09c-0.228-0.432-0.465-0.854-0.717-1.268c-0.09-0.148-0.189-0.289-0.281-0.434
	c-0.168-0.262-0.333-0.523-0.51-0.781c-0.119-0.17-0.249-0.332-0.373-0.5c-0.161-0.219-0.32-0.441-0.488-0.652
	c-0.147-0.186-0.305-0.359-0.458-0.537c-0.157-0.186-0.31-0.375-0.473-0.557c-0.172-0.185-0.353-0.365-0.53-0.543
	c-0.158-0.164-0.309-0.33-0.472-0.486c-0.193-0.186-0.397-0.363-0.596-0.547c-0.157-0.141-0.311-0.287-0.471-0.426
	c-0.221-0.186-0.449-0.361-0.677-0.543c-0.151-0.119-0.299-0.244-0.455-0.361c-0.246-0.186-0.504-0.361-0.758-0.537
	c-0.146-0.102-0.287-0.207-0.435-0.305c-0.278-0.184-0.565-0.353-0.851-0.527c-0.136-0.082-0.267-0.17-0.402-0.248
	c-0.31-0.176-0.625-0.344-0.943-0.512c-0.125-0.065-0.246-0.135-0.373-0.197c-0.338-0.17-0.683-0.33-1.032-0.488
	c-0.114-0.049-0.225-0.105-0.342-0.156c-0.367-0.158-0.745-0.307-1.125-0.455c-0.102-0.039-0.2-0.082-0.303-0.119
	c-0.258-0.096-0.523-0.182-0.787-0.27c-0.146-0.049-0.287-0.101-0.434-0.148c-0.089-0.029-0.175-0.059-0.266-0.09
	c-0.43-0.133-0.87-0.256-1.313-0.373c-0.076-0.019-0.149-0.043-0.224-0.06c-0.463-0.119-0.934-0.227-1.408-0.326
	c-0.063-0.012-0.121-0.027-0.184-0.039c-0.494-0.101-0.997-0.191-1.505-0.271c-0.046-0.006-0.088-0.016-0.134-0.023
	c-0.524-0.082-1.06-0.15-1.598-0.207c-0.032-0.004-0.061-0.01-0.091-0.016c-0.557-0.057-1.12-0.106-1.69-0.141
	c-0.017,0-0.031-0.002-0.048-0.002c-0.583-0.037-1.173-0.063-1.772-0.074c-0.004,0-0.008,0-0.011,0
	c-4.791-0.09-10.056,0.451-15.675,2.053c0.03-0.006,0.058-0.012,0.088-0.019c4.986-1.26,9.677-1.65,13.989-1.572
	c0.004,0,0.008,0.002,0.012,0.002c0.605,0.012,1.202,0.037,1.791,0.072c0.018,0,0.032,0.002,0.049,0.004
	c0.577,0.035,1.146,0.084,1.709,0.143c0.03,0.006,0.06,0.01,0.093,0.014c0.544,0.059,1.083,0.129,1.615,0.211
	c0.046,0.006,0.089,0.016,0.134,0.021c0.515,0.082,1.022,0.172,1.522,0.273c0.063,0.012,0.123,0.027,0.184,0.039
	c0.481,0.104,0.956,0.209,1.425,0.328c0.075,0.018,0.149,0.041,0.227,0.061c0.213,0.057,0.422,0.121,0.633,0.182
	c0.232,0.064,0.467,0.127,0.693,0.195c0.092,0.029,0.179,0.063,0.27,0.09c0.416,0.133,0.829,0.273,1.233,0.422
	c0.103,0.037,0.203,0.08,0.307,0.119c0.384,0.148,0.765,0.299,1.137,0.459c0.118,0.051,0.231,0.107,0.347,0.158
	c0.353,0.158,0.701,0.318,1.042,0.488c0.129,0.065,0.253,0.135,0.378,0.201c0.322,0.168,0.642,0.336,0.954,0.514
	c0.138,0.08,0.27,0.168,0.407,0.25c0.288,0.174,0.579,0.346,0.859,0.531c0.15,0.098,0.294,0.205,0.44,0.305
	c0.257,0.18,0.518,0.354,0.766,0.543c0.158,0.119,0.308,0.242,0.461,0.363c0.23,0.182,0.461,0.359,0.685,0.547
	c0.162,0.139,0.317,0.287,0.476,0.428c0.201,0.184,0.406,0.361,0.603,0.549c0.164,0.158,0.315,0.324,0.477,0.49
	c0.18,0.18,0.362,0.361,0.535,0.547c0.165,0.184,0.32,0.373,0.479,0.561c0.155,0.18,0.314,0.355,0.464,0.541
	c0.17,0.213,0.33,0.438,0.493,0.656c0.126,0.17,0.257,0.332,0.377,0.504c0.18,0.258,0.347,0.524,0.517,0.787
	c0.093,0.144,0.192,0.285,0.283,0.433c0.254,0.416,0.495,0.844,0.725,1.279c0.188,0.358,0.365,0.723,0.531,1.094
	c0.057,0.127,0.107,0.254,0.159,0.379c0.104,0.25,0.212,0.498,0.309,0.752c0.057,0.152,0.108,0.307,0.163,0.461
	c0.082,0.232,0.162,0.463,0.237,0.697c0.052,0.168,0.099,0.338,0.148,0.508c0.063,0.227,0.129,0.453,0.185,0.68
	c0.046,0.18,0.086,0.359,0.125,0.539c0.052,0.223,0.101,0.449,0.143,0.676c0.037,0.187,0.068,0.375,0.102,0.564
	c0.038,0.225,0.07,0.449,0.102,0.674c0.025,0.193,0.052,0.389,0.074,0.586c0.024,0.223,0.043,0.447,0.061,0.672
	c0.017,0.201,0.034,0.402,0.046,0.604c0.014,0.223,0.021,0.449,0.027,0.674c0.006,0.209,0.014,0.414,0.016,0.623
	c0,0.221-0.005,0.443-0.01,0.664c-0.004,0.217-0.006,0.434-0.015,0.649c-0.01,0.213-0.028,0.426-0.043,0.639
	c-0.063,0.92-0.171,1.851-0.328,2.791c-0.029,0.16-0.054,0.328-0.083,0.494c-0.052,0.273-0.113,0.551-0.171,0.826
	c-0.037,0.172-0.071,0.344-0.111,0.516c-0.064,0.275-0.136,0.555-0.208,0.832c-0.044,0.17-0.088,0.34-0.135,0.512
	c-0.078,0.281-0.163,0.564-0.251,0.848c-0.051,0.168-0.102,0.33-0.155,0.498c-0.095,0.289-0.193,0.578-0.293,0.863
	c-0.058,0.16-0.114,0.32-0.175,0.477c-0.108,0.297-0.223,0.594-0.341,0.891c-0.061,0.147-0.119,0.293-0.182,0.441
	c-0.129,0.309-0.261,0.617-0.398,0.924c-0.056,0.129-0.117,0.256-0.177,0.383c-0.152,0.326-0.305,0.654-0.468,0.979
	c-0.045,0.096-0.097,0.191-0.145,0.283c-0.182,0.361-0.366,0.717-0.563,1.076c-0.009,0.014-0.018,0.029-0.025,0.045
	c-1.111,2.025-2.314,3.955-3.847,5.896c-0.555,0.693-1.104,1.346-1.646,1.967c-0.199,0.223-0.395,0.445-0.601,0.668
	c-0.081,0.09-0.165,0.18-0.25,0.27c-0.296,0.32-0.6,0.637-0.91,0.951c-0.091,0.09-0.18,0.182-0.272,0.271
	c-0.314,0.314-0.635,0.625-0.96,0.938c-0.089,0.084-0.181,0.166-0.271,0.252c-0.335,0.316-0.678,0.627-1.028,0.938
	c-0.076,0.068-0.155,0.135-0.233,0.203c-0.369,0.324-0.698,0.645-1.085,0.963c-0.935,0.773-2.423,1.814-3.775,2.734
	c-0.754,0.441-1.518,0.875-2.293,1.301c-0.606,0.32-1.213,0.644-1.833,0.957c-0.85,0.426-1.701,0.838-2.553,1.236
	c-0.273,0.127-0.547,0.246-0.821,0.371c-0.579,0.264-1.158,0.525-1.739,0.779c-0.32,0.137-0.642,0.264-0.962,0.402
	c-0.535,0.221-1.067,0.445-1.6,0.654c-0.336,0.137-0.669,0.258-1.005,0.387c-0.516,0.199-1.037,0.396-1.558,0.588
	c-0.335,0.121-0.671,0.234-1.009,0.351c-0.516,0.18-1.035,0.361-1.549,0.529c-0.331,0.105-0.662,0.211-0.987,0.314
	c-0.523,0.164-1.044,0.326-1.566,0.479c-0.317,0.096-0.636,0.184-0.953,0.273c-0.532,0.15-1.062,0.297-1.588,0.432
	c-0.302,0.08-0.604,0.154-0.903,0.229c-0.547,0.139-1.09,0.266-1.635,0.389c-0.276,0.064-0.556,0.127-0.833,0.186
	c-0.567,0.125-1.133,0.234-1.694,0.344c-0.247,0.047-0.499,0.098-0.746,0.141c-0.598,0.107-1.191,0.205-1.781,0.295
	c-0.208,0.035-0.419,0.07-0.624,0.102c-0.648,0.092-1.287,0.176-1.923,0.25c-0.15,0.02-0.299,0.039-0.451,0.057
	c-0.729,0.082-1.454,0.15-2.17,0.205c-0.056,0.002-0.108,0.01-0.164,0.016c-3.165,0.238-6.203,0.229-9.061-0.031h-0.01
	c-7.129-0.644-13.134-2.83-17.259-6.514c0.056,0.111,0.102,0.227,0.159,0.34c0.534,1.049,1.15,2.039,1.835,2.98
	c5.069,6.969,14.137,11.004,25.368,12.031h-0.005c0.006,0,0.012,0,0.016,0c3.663,0.334,7.553,0.348,11.61,0.039
	c0.068-0.006,0.139-0.014,0.207-0.019c0.92-0.072,1.847-0.16,2.782-0.266c0.19-0.021,0.384-0.049,0.576-0.072
	c0.815-0.098,1.635-0.203,2.462-0.326c0.266-0.039,0.534-0.086,0.803-0.127c0.757-0.119,1.517-0.246,2.282-0.387
	c0.317-0.057,0.637-0.121,0.956-0.182c0.72-0.141,1.442-0.285,2.169-0.445c0.355-0.076,0.713-0.158,1.069-0.24
	c0.695-0.158,1.393-0.324,2.092-0.5c0.386-0.098,0.772-0.197,1.158-0.299c0.677-0.178,1.355-0.365,2.036-0.561
	c0.407-0.115,0.815-0.232,1.224-0.354c0.666-0.199,1.334-0.408,2.003-0.621c0.421-0.135,0.842-0.268,1.265-0.408
	c0.661-0.219,1.324-0.451,1.987-0.684c0.431-0.152,0.86-0.301,1.291-0.459c0.665-0.244,1.33-0.5,1.995-0.76
	c0.43-0.166,0.857-0.328,1.287-0.5c0.682-0.273,1.365-0.562,2.049-0.851c0.411-0.174,0.822-0.342,1.234-0.522
	c0.743-0.324,1.485-0.666,2.228-1.008c0.351-0.162,0.701-0.314,1.052-0.48c1.092-0.516,2.184-1.049,3.272-1.604
	c0.793-0.404,1.569-0.822,2.347-1.238C331.42,61.247,348.989,33.515,339.699,15.274z"/>
</svg>
